<svg width="388" height="308" viewBox="0 0 388 308" fill="none" xmlns="http://www.w3.org/2000/svg">
<path d="M193.89 307.63C300.972 307.63 387.78 302.562 387.78 296.31C387.78 290.058 300.972 284.99 193.89 284.99C86.8075 284.99 0 290.058 0 296.31C0 302.562 86.8075 307.63 193.89 307.63Z" fill="#718591" fill-opacity="0.2"/>
<path d="M82.2734 105.632L89.1334 101.712C89.1334 101.712 91.7734 97.6416 92.5634 97.4516C93.3534 97.2616 102.053 97.4516 102.053 97.4516C102.053 97.4516 100.743 103.092 100.603 104.202C100.463 105.312 92.1634 104.202 92.1634 104.202L85.4434 108.202L82.2734 105.632Z" fill="#EBB376"/>
<path d="M18.3805 288.071L11.2005 286.641C11.0723 286.64 10.9477 286.683 10.8476 286.763C10.7475 286.843 10.678 286.955 10.6505 287.081L8.72049 294.261C8.67982 294.506 8.73208 294.758 8.86706 294.967C9.00204 295.176 9.21005 295.327 9.45048 295.391H9.66048C12.2005 295.391 14.0505 295.191 17.2305 295.191C19.2305 295.191 25.1105 295.401 27.8205 295.401C30.5305 295.401 30.8905 292.721 29.8205 292.481C24.8205 291.391 21.1005 289.891 19.5105 288.481C19.2026 288.2 18.7965 288.053 18.3805 288.071V288.071Z" fill="#263238"/>
<path d="M106.252 287.83H98.4118C98.2832 287.828 98.1577 287.87 98.0572 287.951C97.9567 288.031 97.8875 288.144 97.8618 288.27L96.5818 294.07C96.5443 294.315 96.5992 294.566 96.736 294.773C96.8727 294.98 97.0815 295.129 97.3218 295.19H97.5318C100.072 295.14 101.912 294.99 105.102 294.99C107.102 294.99 112.982 295.19 115.692 295.19C118.402 295.19 118.752 292.52 117.642 292.27C112.642 291.19 108.922 289.68 107.332 288.27C107.191 288.128 107.022 288.016 106.837 287.94C106.651 287.865 106.452 287.827 106.252 287.83V287.83Z" fill="#263238"/>
<path d="M32.2222 155.74L65.4222 147.32C72.9522 163.76 100.582 231.26 107.282 287.42L96.0422 290.27C96.0422 290.27 76.1422 207.45 59.4522 183.27C59.4522 183.27 58.5622 220.03 56.7522 225.38C55.2622 229.78 21.0922 288.65 21.0922 288.65L9.99219 287.4C9.99219 287.4 37.8922 227.32 39.5322 219.83C40.6922 214.73 35.6122 177.27 35.6122 177.27C34.7222 173.93 33.3822 160.1 33.3822 160.1C33.3822 160.1 32.3822 156.43 32.2222 155.74Z" fill="#407BFF"/>
<path opacity="0.2" d="M59.4628 183.29C62.2802 187.552 64.7386 192.041 66.8128 196.71C64.5128 183.77 57.3828 171.24 57.3828 171.24L59.4628 183.29Z" fill="black"/>
<path opacity="0.3" d="M32.2222 155.74L65.4222 147.32C72.9522 163.76 100.582 231.26 107.282 287.42L96.0422 290.27C96.0422 290.27 76.1422 207.45 59.4522 183.27C59.4522 183.27 58.5622 220.03 56.7522 225.38C55.2622 229.78 21.0922 288.65 21.0922 288.65L9.99219 287.4C9.99219 287.4 37.8922 227.32 39.5322 219.83C40.6922 214.73 35.6122 177.27 35.6122 177.27C34.7222 173.93 33.3822 160.1 33.3822 160.1C33.3822 160.1 32.3822 156.43 32.2222 155.74Z" fill="black"/>
<path d="M89.9419 106.2C89.9419 106.2 74.8019 116.42 70.8119 116.96C69.2219 117.18 65.9419 116.64 62.5519 115.96C57.4119 114.86 52.0519 113.32 52.0519 113.32L51.3819 108.25L50.6719 102.83C51.8719 102.43 67.5319 108.83 69.8719 109.83C72.2119 110.83 87.3419 101.83 87.3419 101.83L89.9419 106.2Z" fill="#263238"/>
<path d="M43.1228 153.4L44.1028 157.24L33.3828 160.1L32.3828 156.12L43.1228 153.4Z" fill="black"/>
<path d="M60.0325 149.111L60.9625 152.751L45.2925 156.931L44.3125 153.101L60.0325 149.111Z" fill="black"/>
<path d="M67.1327 151.11L62.1427 152.44L61.2227 148.81L65.8027 147.65L67.1327 151.11Z" fill="black"/>
<path d="M51.5072 155.275L57.6914 153.707L56.5607 149.248L50.3764 150.816L51.5072 155.275Z" fill="white"/>
<path d="M65.7938 147.641L32.3738 156.121C30.7438 151.711 29.0838 147.271 27.4638 142.941C26.2738 139.771 25.1038 136.661 23.9638 133.651C23.6771 132.878 23.3871 132.118 23.0938 131.371L22.0938 128.711C21.3537 126.764 20.6404 124.888 19.9538 123.081L18.1138 118.271L17.2438 115.991L15.5938 111.691L50.6838 102.791C62.2538 122.981 65.7938 147.641 65.7938 147.641Z" fill="#263238"/>
<path d="M28.3338 110.831C31.9438 112.561 38.6038 109.511 38.6038 109.511C38.6038 109.511 40.8138 107.071 39.4938 105.991C36.8138 106.341 36.9838 105.461 36.0138 104.091C35.4591 103.227 35.0786 102.262 34.8938 101.251C34.7738 100.693 34.6837 100.129 34.6238 99.5612L24.0938 95.7812C26.4838 99.6412 30.1938 106.951 28.3338 110.831Z" fill="#EBB376"/>
<path opacity="0.2" d="M27.293 99.2305C29.193 104.28 33.853 104.43 36.013 104.09C35.4583 103.226 35.0778 102.261 34.893 101.25L27.293 99.2305Z" fill="black"/>
<path d="M41.0128 80.0703C41.0128 80.0703 43.7628 88.3703 39.7928 92.4203C35.8228 96.4703 33.1328 80.6003 33.1328 80.6003L41.0128 80.0703Z" fill="#263238"/>
<path d="M27.8107 101.46C28.9986 102.7 30.5602 103.516 32.2562 103.783C33.9522 104.051 35.6891 103.755 37.2007 102.94C39.1826 101.916 40.6991 100.174 41.4407 98.0704C41.5407 97.7904 41.6307 97.4904 41.7107 97.1904C43.0507 91.6004 42.2107 82.3704 36.1207 79.8904C34.7785 79.3371 33.3169 79.1363 31.8752 79.3072C30.4334 79.4782 29.0594 80.0152 27.8837 80.8671C26.7081 81.719 25.77 82.8575 25.1586 84.1744C24.5472 85.4912 24.2828 86.9426 24.3907 88.3904C24.7507 94.6204 24.6707 98.2804 27.8107 101.46Z" fill="#EBB376"/>
<path d="M33.8203 90.1602C33.8203 90.6602 34.0803 91.0702 34.4203 91.0702C34.7603 91.0702 35.0103 90.6602 35.0203 90.1602C35.0303 89.6602 34.7503 89.2402 34.4203 89.2402C34.0903 89.2402 33.8203 89.6502 33.8203 90.1602Z" fill="#263238"/>
<path d="M39.543 90.16C39.543 90.67 39.813 91.08 40.143 91.08C40.473 91.08 40.733 90.66 40.743 90.16C40.753 89.66 40.463 89.25 40.143 89.25C39.823 89.25 39.543 89.68 39.543 90.16Z" fill="#263238"/>
<path d="M37.7231 90.4102C38.321 91.9586 39.1322 93.416 40.1331 94.7402C39.7859 94.9889 39.3882 95.1582 38.9683 95.2359C38.5483 95.3137 38.1164 95.2981 37.7031 95.1902L37.7231 90.4102Z" fill="#D58745"/>
<path d="M41.6319 87.82C41.5839 87.8446 41.5308 87.8574 41.4769 87.8574C41.423 87.8574 41.3698 87.8446 41.3219 87.82C41.0261 87.5926 40.6811 87.438 40.3145 87.3685C39.948 87.299 39.5703 87.3166 39.2119 87.42C39.1389 87.4478 39.0579 87.4456 38.9867 87.4137C38.9154 87.3818 38.8597 87.3229 38.8319 87.25C38.804 87.177 38.8063 87.096 38.8382 87.0248C38.87 86.9535 38.9289 86.8978 39.0019 86.87C39.4503 86.7283 39.9264 86.6971 40.3895 86.7789C40.8526 86.8607 41.2891 87.0532 41.6619 87.34C41.6946 87.3612 41.7228 87.3887 41.7446 87.421C41.7665 87.4533 41.7816 87.4897 41.789 87.528C41.7965 87.5663 41.7962 87.6057 41.7881 87.6438C41.78 87.6819 41.7642 87.7181 41.7419 87.75V87.75C41.7083 87.7778 41.6713 87.8014 41.6319 87.82V87.82Z" fill="#263238"/>
<path d="M32.6911 87.8902C32.6339 87.8826 32.5792 87.8621 32.5311 87.8302C32.4761 87.7741 32.4453 87.6988 32.4453 87.6202C32.4453 87.5417 32.4761 87.4663 32.5311 87.4102V87.4102C32.8806 87.0902 33.3023 86.8595 33.7602 86.7376C34.2181 86.6157 34.6987 86.6063 35.1611 86.7102C35.234 86.7334 35.2954 86.7836 35.3326 86.8505C35.3698 86.9174 35.38 86.996 35.3611 87.0702V87.0702C35.3378 87.1458 35.2866 87.2097 35.2178 87.2487C35.149 87.2877 35.0679 87.299 34.9911 87.2802V87.2802C34.6263 87.2069 34.2493 87.2213 33.8912 87.3221C33.5331 87.423 33.204 87.6074 32.9311 87.8602C32.8953 87.8816 32.8555 87.8953 32.8142 87.9005C32.7729 87.9057 32.731 87.9022 32.6911 87.8902V87.8902Z" fill="#263238"/>
<path d="M28.9523 80.6699L29.5523 81.8199C27.5523 82.5899 28.0523 84.9499 28.5523 85.9999C29.5523 88.2599 28.4023 91.8899 26.7123 93.3999C26.7123 93.3999 26.6023 92.3999 25.7723 92.6799C24.9423 92.9599 25.4223 98.1399 27.1823 100.54C27.1823 100.54 24.5923 98.4099 22.9323 93.0299C21.4023 88.0299 21.0423 83.8599 21.9923 81.8599L28.9523 80.6699Z" fill="#263238"/>
<path d="M21.6737 93.5112C22.0139 94.2095 22.4884 94.8339 23.0701 95.3486C23.6518 95.8634 24.3292 96.2585 25.0637 96.5112C27.0637 97.1712 28.0637 95.4412 27.6637 93.5112C27.2437 91.8212 25.7337 89.3712 23.6637 89.5612C23.2272 89.6099 22.8098 89.7667 22.4492 90.0174C22.0886 90.2682 21.7963 90.6049 21.5987 90.9971C21.4011 91.3893 21.3045 91.8247 21.3176 92.2637C21.3307 92.7027 21.4531 93.1315 21.6737 93.5112V93.5112Z" fill="#EBB376"/>
<path d="M28.8906 103.961C31.8306 106.021 37.5606 106.691 40.3706 102.961C43.1806 99.2309 42.2806 93.2409 42.2806 93.2409C41.9579 94.5787 41.3432 95.8285 40.4806 96.9009C38.8906 94.9809 36.1906 96.0709 36.1906 96.0709C35.6216 95.3303 34.8053 94.8192 33.8906 94.6309C32.5806 94.5009 28.8906 94.7209 28.8906 94.7209C27.7106 93.9709 27.6606 90.6309 27.6606 90.6309L26.9406 91.2309C26.9406 91.2309 25.9406 101.891 28.8906 103.961Z" fill="#263238"/>
<path d="M36.752 82.7914C36.752 82.7914 43.752 79.3914 42.922 75.9914C42.092 72.5914 40.052 76.4714 40.052 76.4714C40.052 76.4714 40.992 73.8914 39.152 73.4714C37.312 73.0514 37.892 74.7014 36.892 75.6914C35.892 76.6814 26.192 75.2414 23.062 77.1814C19.932 79.1214 22.322 85.8314 22.322 85.8314C24.1706 83.9755 26.5205 82.6994 29.0836 82.1594C31.6468 81.6194 34.3118 81.8391 36.752 82.7914V82.7914Z" fill="#263238"/>
<path opacity="0.2" d="M28.8906 103.961C31.8306 106.021 37.5606 106.691 40.3706 102.961C43.1806 99.2309 42.2806 93.2409 42.2806 93.2409C41.9579 94.5787 41.3432 95.8285 40.4806 96.9009C38.8906 94.9809 36.1906 96.0709 36.1906 96.0709C35.6216 95.3303 34.8053 94.8192 33.8906 94.6309C32.5806 94.5009 28.8906 94.7209 28.8906 94.7209C27.7106 93.9709 27.6606 90.6309 27.6606 90.6309L26.9406 91.2309C26.9406 91.2309 25.9406 101.891 28.8906 103.961Z" fill="white"/>
<path d="M36.4905 97.9712C35.9523 98.6914 35.4677 99.4501 35.0405 100.241L34.5905 100.071C32.5905 99.3412 31.8705 98.3412 31.7105 97.4412C31.6457 97.0052 31.6834 96.5601 31.8205 96.1412C31.8933 95.8987 31.9975 95.6667 32.1305 95.4512C33.1823 96.4554 34.4372 97.2226 35.8105 97.7012C36.2205 97.8812 36.4905 97.9712 36.4905 97.9712Z" fill="#263238"/>
<path d="M35.8103 97.7109L35.3603 98.3709C33.4603 97.6809 32.2103 96.9409 31.8203 96.1509C31.8932 95.9084 31.9974 95.6765 32.1303 95.4609C33.1822 96.4652 34.437 97.2324 35.8103 97.7109V97.7109Z" fill="white"/>
<path d="M34.5909 100.071C32.5909 99.3414 31.8709 98.3414 31.7109 97.4414C32.4747 97.7385 33.1816 98.1647 33.8009 98.7014C34.2017 99.0637 34.4781 99.5431 34.5909 100.071V100.071Z" fill="#DE5753"/>
<path d="M39.9219 109.521L39.3319 114.701L50.1319 137.712L49.0619 140.761L45.5319 139.131L37.8319 115.661L32.1719 111.831L36.2919 109.571L39.9219 109.521Z" fill="#407BFF"/>
<path d="M28.5713 105.98L35.7213 108.93L36.0113 104.09L41.2812 105.39L41.7312 112.76L36.6612 110.69L34.5413 115.41L25.5312 109.39L28.5713 105.98Z" fill="#263238"/>
<path opacity="0.2" d="M28.5713 105.98L35.7213 108.93L36.0113 104.09L41.2812 105.39L41.7312 112.76L36.6612 110.69L34.5413 115.41L25.5312 109.39L28.5713 105.98Z" fill="white"/>
<path opacity="0.2" d="M22.0805 128.711C21.3405 126.764 20.6271 124.887 19.9405 123.081L18.1005 118.271L17.2305 115.991C18.2305 115.501 20.7805 115.791 21.4905 116.991C24.0905 121.531 22.0805 128.711 22.0805 128.711Z" fill="black"/>
<path opacity="0.2" d="M34.6138 133.791C34.1866 135.756 33.3219 137.599 32.084 139.183C30.8461 140.767 29.2668 142.052 27.4638 142.941C26.2738 139.771 25.1038 136.661 23.9638 133.651C23.6771 132.878 23.3871 132.118 23.0938 131.371L22.0938 128.711L33.6738 130.181L34.6138 133.791Z" fill="black"/>
<path opacity="0.2" d="M62.5528 115.921C57.4128 114.821 52.0528 113.281 52.0528 113.281L51.3828 108.211C51.3828 108.211 60.8328 109.221 62.5528 115.921Z" fill="black"/>
<path d="M15.5813 234.071C15.2678 234.081 14.9589 233.993 14.698 233.819C14.4372 233.645 14.2376 233.393 14.1272 233.099C14.0168 232.806 14.0013 232.485 14.0827 232.182C14.1642 231.879 14.3385 231.609 14.5813 231.411C31.2713 217.711 30.9513 196.241 30.6413 175.471C30.4013 159.811 30.1813 145.011 37.5513 134.951C47.8913 120.811 89.4813 98.3807 96.3713 97.7407C101.301 97.2507 251.671 55.4607 330.501 33.4307C330.884 33.3233 331.295 33.3725 331.642 33.5675C331.989 33.7626 332.244 34.0874 332.351 34.4707C332.459 34.8539 332.409 35.2641 332.214 35.6111C332.019 35.958 331.695 36.2133 331.311 36.3207C321.981 38.9307 102.831 100.161 96.6513 100.731C90.7213 101.281 49.5513 123.621 39.9713 136.731C33.2013 145.981 33.4113 160.291 33.6413 175.431C33.9413 195.911 34.2913 219.131 16.4813 233.741C16.2262 233.947 15.9096 234.064 15.5813 234.071V234.071Z" fill="#263238"/>
<path opacity="0.4" d="M331.361 36.3102L310.801 42.0702C254.251 57.8502 101.8 100.27 96.7005 100.74C90.7705 101.29 49.6005 123.63 40.0205 136.74C33.2505 145.99 33.4605 160.3 33.6905 175.44C33.9905 195.92 34.3405 219.14 16.5305 233.75C16.2503 233.983 15.8943 234.104 15.5305 234.09C15.217 234.101 14.9081 234.013 14.6473 233.838C14.3864 233.664 14.1868 233.413 14.0764 233.119C13.966 232.825 13.9505 232.504 14.0319 232.202C14.1134 231.899 14.2877 231.629 14.5305 231.43C31.2205 217.73 30.9005 196.26 30.5905 175.49C30.3505 159.83 30.1305 145.03 37.5005 134.97C47.8405 120.83 89.4305 98.4002 96.3205 97.7602C100.96 97.3002 234.18 60.3202 315.6 37.6002L330.451 33.4502C330.834 33.3428 331.244 33.392 331.591 33.5871C331.938 33.7821 332.193 34.107 332.301 34.4902C332.408 34.8735 332.359 35.2837 332.164 35.6306C331.969 35.9776 331.644 36.2328 331.26 36.3402L331.361 36.3102Z" fill="white"/>
<path opacity="0.2" d="M331.361 36.3105L310.801 42.0705C312.242 40.3798 313.888 38.8749 315.701 37.5905L330.551 33.4405C330.934 33.333 331.344 33.3823 331.691 33.5773C332.038 33.7723 332.293 34.0972 332.401 34.4805C332.508 34.8637 332.459 35.2739 332.264 35.6208C332.069 35.9678 331.744 36.223 331.361 36.3305V36.3105Z" fill="black"/>
<path d="M25.8008 130.87L33.6608 130.18C33.6608 130.18 37.7708 127.58 38.5608 127.75C39.3508 127.92 47.1808 131.75 47.1808 131.75C47.1808 131.75 43.6308 136.32 43.0408 137.27C42.4508 138.22 35.3808 133.74 35.3808 133.74L27.5908 134.57L25.8008 130.87Z" fill="#EBB376"/>
<path d="M15.5822 111.691C12.0122 114.241 2.71223 135.031 3.70223 138.241C4.69223 141.451 33.6322 135.121 33.6322 135.121L32.3522 129.711H16.7822L20.4822 123.871C20.4822 123.871 22.7622 121.651 21.3622 116.491C20.3522 112.771 15.5822 111.691 15.5822 111.691Z" fill="#263238"/>
<path d="M317.1 113.779L311.17 110.969C311.17 110.969 308.17 105.229 307.29 104.309C306.41 103.389 302.16 106.959 302.16 107.579C302.16 108.199 305.24 113.999 306.04 114.349C307.23 114.524 308.44 114.524 309.63 114.349L315.27 117.079L317.1 113.779Z" fill="#9F5B53"/>
<path d="M330.941 78.2095L332.131 73.9595C332.131 73.9595 334.011 68.4195 333.811 67.1395C333.444 65.6245 332.969 64.1374 332.391 62.6895C332.391 62.6895 327.191 69.0195 327.191 69.8095C327.191 70.5995 329.251 73.4695 329.251 73.4695L328.251 78.2095H330.941Z" fill="#9F5B53"/>
<path d="M335.512 109.87C335.512 109.87 331.032 104.3 329.712 99.12C328.392 93.94 332.382 77.12 332.382 77.12L328.172 76C328.172 76 323.172 93.21 323.002 99.49C322.832 105.77 332.172 124.2 332.172 124.2L335.512 109.87Z" fill="#407BFF"/>
<path opacity="0.2" d="M332.802 121.429L332.162 124.159C332.162 124.159 328.943 117.809 326.312 111.289C329.049 113.255 331.113 116.017 332.222 119.199C332.476 119.925 332.67 120.671 332.802 121.429Z" fill="black"/>
<path d="M359.23 122.069C359.174 123.231 359.034 124.387 358.81 125.529C358.35 128.029 357.57 130.979 356.68 134.229C356.2 135.939 355.68 137.769 355.22 139.699C352.99 148.369 351.78 151.819 350.13 162.889L318.48 155.379C320.191 145.902 322.799 136.611 326.27 127.629C327.19 125.239 328.27 122.849 329.36 120.489C331.108 116.788 333.165 113.242 335.51 109.889C335.51 109.889 340.63 114.569 356.71 117.379C358.66 117.679 359.33 119.379 359.23 122.069Z" fill="#407BFF"/>
<path opacity="0.2" d="M355.253 118.46C355.253 119.46 359.043 124.22 358.813 125.46C358.383 125.75 357.873 126.07 357.293 126.46C346.583 132.69 332.533 129.53 326.293 127.6C327.213 125.21 329.293 120.82 330.373 118.46L337.883 120.13C337.883 120.13 350.163 117.33 355.253 118.46Z" fill="black"/>
<path d="M342.384 111.779C343.534 111.339 352.974 113.689 352.274 113.889C351.574 114.089 348.054 124.889 343.124 124.079C338.194 123.269 338.284 113.339 342.384 111.779Z" fill="#407BFF"/>
<path d="M299.64 288.73L293.7 290.02L290.23 276.36L296.18 275.07L299.64 288.73Z" fill="#9F5B53"/>
<path d="M292.223 287.539H299.613C299.734 287.539 299.85 287.581 299.943 287.658C300.037 287.734 300.1 287.841 300.123 287.959L301.323 293.369C301.35 293.485 301.353 293.605 301.332 293.721C301.311 293.838 301.268 293.95 301.203 294.049C301.139 294.149 301.056 294.235 300.958 294.302C300.86 294.369 300.749 294.416 300.633 294.439H300.433C298.043 294.439 296.303 294.249 293.303 294.249C291.453 294.249 285.873 294.439 283.303 294.439C280.733 294.439 280.423 291.919 281.463 291.689C286.153 290.689 289.683 289.249 291.183 287.909C291.323 287.782 291.488 287.683 291.666 287.62C291.845 287.556 292.034 287.529 292.223 287.539V287.539Z" fill="#263238"/>
<path d="M290.213 288.61C289.799 288.641 289.387 288.532 289.043 288.3C288.931 288.208 288.844 288.089 288.792 287.954C288.739 287.819 288.722 287.673 288.743 287.53C288.738 287.446 288.758 287.362 288.801 287.289C288.844 287.216 288.907 287.157 288.983 287.12C289.663 286.77 291.623 287.98 291.843 288.12C291.868 288.132 291.889 288.153 291.901 288.178C291.914 288.203 291.918 288.232 291.913 288.26C291.909 288.289 291.897 288.316 291.877 288.338C291.857 288.359 291.831 288.374 291.803 288.38C291.283 288.516 290.75 288.593 290.213 288.61ZM289.303 287.35C289.245 287.33 289.181 287.33 289.123 287.35C289.123 287.35 289.033 287.4 289.023 287.52C289.013 287.615 289.025 287.711 289.06 287.8C289.095 287.888 289.151 287.967 289.223 288.03C289.903 288.341 290.675 288.38 291.383 288.14C290.747 287.745 290.041 287.476 289.303 287.35V287.35Z" fill="#407BFF"/>
<path d="M291.763 288.39H291.693C291.073 288.05 289.853 286.71 289.973 286.07C289.996 285.963 290.055 285.866 290.141 285.797C290.226 285.728 290.333 285.69 290.443 285.69C290.552 285.676 290.664 285.685 290.769 285.718C290.874 285.751 290.971 285.806 291.053 285.88C291.753 286.45 291.903 288.2 291.913 288.28C291.915 288.306 291.909 288.332 291.897 288.355C291.884 288.378 291.866 288.397 291.843 288.41C291.829 288.414 291.814 288.415 291.8 288.411C291.786 288.408 291.773 288.4 291.763 288.39ZM290.543 285.92H290.473C290.283 285.92 290.273 286.03 290.263 286.07C290.183 286.47 290.963 287.48 291.583 287.95C291.549 287.268 291.308 286.612 290.893 286.07C290.848 286.023 290.794 285.985 290.734 285.959C290.673 285.933 290.609 285.92 290.543 285.92V285.92Z" fill="#407BFF"/>
<path d="M350.392 163.719C350.392 163.719 345.262 188.179 333.262 194.719C331.885 195.493 330.376 196.005 328.812 196.229C328.812 196.229 316.642 201.229 306.122 205.959C299.722 208.849 293.932 211.669 291.862 213.249C286.382 217.419 299.802 282.519 299.802 282.519L290.682 282.618C290.682 282.618 271.492 224.979 274.682 209.849C277.872 194.719 312.312 171.559 312.312 171.559L317.612 156.979L350.392 163.719Z" fill="#263238"/>
<path opacity="0.2" d="M333.261 194.749C331.884 195.524 330.375 196.036 328.811 196.259C328.811 196.259 316.641 201.259 306.121 205.989C312.891 193.539 324.961 185.449 324.961 185.449L333.261 194.749Z" fill="black"/>
<path d="M376.101 288.73L370.161 290.02L366.691 276.36L372.641 275.07L376.101 288.73Z" fill="#9F5B53"/>
<path d="M368.68 287.539H376.07C376.191 287.539 376.308 287.581 376.401 287.658C376.494 287.734 376.557 287.841 376.58 287.959L377.78 293.369C377.807 293.485 377.81 293.605 377.789 293.721C377.769 293.838 377.725 293.95 377.661 294.049C377.596 294.149 377.513 294.235 377.415 294.302C377.317 294.369 377.207 294.416 377.09 294.439H376.89C374.5 294.439 372.76 294.249 369.76 294.249C367.91 294.249 362.33 294.439 359.76 294.439C357.19 294.439 356.88 291.919 357.92 291.689C362.61 290.689 366.14 289.249 367.64 287.909C367.78 287.782 367.945 287.683 368.123 287.62C368.302 287.556 368.491 287.529 368.68 287.539V287.539Z" fill="#263238"/>
<path d="M366.674 288.61C366.26 288.641 365.848 288.532 365.504 288.3C365.392 288.208 365.305 288.089 365.253 287.954C365.2 287.819 365.183 287.673 365.204 287.53C365.199 287.446 365.219 287.362 365.262 287.289C365.305 287.216 365.368 287.157 365.444 287.12C366.124 286.77 368.084 287.98 368.304 288.12C368.329 288.132 368.35 288.153 368.362 288.178C368.375 288.203 368.379 288.232 368.374 288.26C368.37 288.289 368.358 288.316 368.338 288.338C368.318 288.359 368.292 288.374 368.264 288.38C367.744 288.516 367.211 288.593 366.674 288.61ZM365.764 287.35C365.705 287.33 365.642 287.33 365.584 287.35C365.584 287.35 365.494 287.4 365.484 287.52C365.473 287.615 365.486 287.711 365.521 287.8C365.556 287.888 365.612 287.967 365.684 288.03C366.363 288.341 367.136 288.38 367.844 288.14C367.208 287.745 366.502 287.476 365.764 287.35V287.35Z" fill="#407BFF"/>
<path d="M368.22 288.39H368.15C367.53 288.05 366.31 286.71 366.43 286.07C366.453 285.963 366.512 285.866 366.598 285.797C366.683 285.728 366.79 285.69 366.9 285.69C367.009 285.676 367.121 285.685 367.226 285.718C367.331 285.751 367.428 285.806 367.51 285.88C368.21 286.45 368.36 288.2 368.37 288.28C368.372 288.306 368.366 288.332 368.354 288.355C368.341 288.378 368.323 288.397 368.3 288.41C368.286 288.414 368.271 288.415 368.257 288.411C368.243 288.408 368.23 288.4 368.22 288.39ZM367 285.92H366.89C366.7 285.92 366.69 286.03 366.68 286.07C366.6 286.47 367.38 287.48 368 287.95C367.961 287.258 367.71 286.594 367.28 286.05C367.204 285.977 367.105 285.932 367 285.92V285.92Z" fill="#407BFF"/>
<path d="M352.44 116.96C350.95 117.96 344.08 117.58 344.08 117.58L340.89 121.07L340.58 115.3C340.58 115.3 338.43 114.41 339.02 113.79C339.768 113.845 340.52 113.751 341.231 113.513C341.942 113.274 342.598 112.896 343.16 112.4C344.55 111.04 344.82 108.85 344.8 106.68C344.8 106.68 344.8 106.62 344.8 106.6L350.67 103.6L354.73 101.51C352.82 105.63 350.09 113.36 352.44 116.96Z" fill="#9F5B53"/>
<path opacity="0.2" d="M352.611 104.97C350.671 109.88 345.611 112.07 343.121 112.39C344.511 111.03 344.781 108.84 344.761 106.67C344.766 106.64 344.766 106.61 344.761 106.58L350.631 103.58C350.641 104.38 352.891 104.22 352.611 104.97Z" fill="black"/>
<path d="M356.342 104.769C356.342 104.769 360.152 106.769 361.422 104.379C362.692 101.989 360.882 101.849 362.752 100.989C364.622 100.129 367.282 99.5295 366.672 97.7195C366.062 95.9095 364.172 95.7195 366.272 93.7195C368.372 91.7195 368.832 88.8995 365.692 88.3495C362.552 87.7995 363.752 85.3495 363.592 84.3495C363.432 83.3495 361.672 82.6495 359.762 83.0495C357.852 83.4495 357.052 80.6195 355.872 79.7395C354.692 78.8595 353.062 79.9395 352.632 81.1295C352.202 82.3195 351.072 80.7395 349.392 80.5395C347.712 80.3395 348.102 82.1095 347.582 83.7595C347.062 85.4095 346.032 84.3395 344.832 85.6995C343.632 87.0595 343.522 96.3395 356.342 104.769Z" fill="#263238"/>
<path d="M358 99.0692C355.13 103.569 353.5 106.539 350.28 107.999C349.847 108.199 349.399 108.366 348.94 108.499C342.68 110.339 337.52 104.309 339.17 98.3392C339.484 97.2616 339.885 96.2114 340.37 95.1992C342.61 90.5092 346.92 85.7092 352.07 86.3392C353.146 86.4621 354.186 86.7959 355.132 87.3215C356.078 87.8471 356.912 88.5542 357.584 89.4023C358.257 90.2504 358.755 91.2227 359.051 92.2638C359.348 93.3048 359.436 94.3941 359.31 95.4691C359.159 96.7545 358.71 97.9871 358 99.0692V99.0692Z" fill="#9F5B53"/>
<path d="M349.193 96.0689C348.983 96.5189 348.533 96.7189 348.253 96.5689C347.973 96.4189 347.943 95.9289 348.173 95.5089C348.403 95.0889 348.843 94.8589 349.113 95.0089C349.383 95.1589 349.433 95.6589 349.193 96.0689Z" fill="#263238"/>
<path d="M344.34 93.3993C344.278 93.5874 344.145 93.7438 343.97 93.8353C343.794 93.9268 343.59 93.9462 343.4 93.8894C343.13 93.7294 343.09 93.2593 343.33 92.8293C343.57 92.3993 343.99 92.1793 344.27 92.3393C344.55 92.4993 344.57 92.9893 344.34 93.3993Z" fill="#263238"/>
<path d="M345.774 94.4688C344.531 95.4903 343.155 96.3381 341.684 96.9888C341.859 97.3631 342.115 97.6942 342.433 97.9586C342.751 98.223 343.123 98.4142 343.524 98.5188L345.774 94.4688Z" fill="#892B29"/>
<path d="M352.092 94.9487C352.04 94.9566 351.986 94.9506 351.937 94.9313C351.888 94.912 351.845 94.88 351.812 94.8387C351.61 94.5398 351.339 94.2933 351.023 94.1194C350.706 93.9456 350.353 93.8494 349.992 93.8387C349.95 93.8466 349.907 93.8451 349.866 93.8344C349.825 93.8237 349.786 93.8041 349.753 93.7769C349.72 93.7497 349.694 93.7156 349.676 93.677C349.658 93.6384 349.648 93.5963 349.648 93.5537C349.648 93.511 349.658 93.4689 349.676 93.4304C349.694 93.3918 349.72 93.3577 349.753 93.3305C349.786 93.3032 349.825 93.2836 349.866 93.2729C349.907 93.2622 349.95 93.2608 349.992 93.2687V93.2687C350.448 93.2717 350.896 93.3853 351.298 93.5995C351.701 93.8137 352.045 94.1222 352.302 94.4987C352.326 94.5279 352.343 94.5617 352.353 94.5979C352.364 94.6341 352.367 94.672 352.362 94.7093C352.357 94.7466 352.345 94.7826 352.326 94.8152C352.307 94.8477 352.282 94.8761 352.252 94.8987V94.8987C352.204 94.9281 352.149 94.9452 352.092 94.9487V94.9487Z" fill="#263238"/>
<path d="M344.692 101.2C345.364 101.418 346.078 101.471 346.774 101.355C347.471 101.238 348.128 100.955 348.692 100.53C348.717 100.501 348.731 100.464 348.731 100.425C348.731 100.387 348.717 100.349 348.692 100.32C348.664 100.293 348.626 100.277 348.587 100.277C348.548 100.277 348.51 100.293 348.482 100.32V100.32C347.948 100.704 347.332 100.958 346.683 101.062C346.034 101.166 345.369 101.118 344.742 100.92C344.725 100.912 344.705 100.908 344.686 100.909C344.667 100.909 344.648 100.914 344.631 100.923C344.614 100.931 344.599 100.944 344.587 100.959C344.575 100.974 344.566 100.991 344.562 101.01V101.01C344.554 101.028 344.55 101.047 344.551 101.066C344.551 101.085 344.556 101.104 344.564 101.122C344.573 101.139 344.585 101.154 344.601 101.166C344.616 101.178 344.633 101.186 344.652 101.19L344.692 101.2Z" fill="#263238"/>
<path d="M343.89 89.2493C343.875 89.1936 343.875 89.1349 343.89 89.0793C343.923 89.011 343.981 88.9581 344.052 88.9319C344.123 88.9058 344.201 88.9084 344.27 88.9393V88.9393C344.69 89.1271 345.058 89.4133 345.344 89.7736C345.629 90.134 345.824 90.5578 345.91 91.0093C345.919 91.0847 345.898 91.1605 345.851 91.2203C345.804 91.2802 345.736 91.3193 345.66 91.3293C345.585 91.3378 345.509 91.3164 345.449 91.2696C345.389 91.2229 345.35 91.1545 345.34 91.0793V91.0793C345.262 90.7263 345.101 90.3968 344.872 90.1171C344.643 89.8375 344.351 89.6156 344.02 89.4693C343.985 89.4435 343.955 89.4107 343.932 89.3728C343.91 89.335 343.896 89.2929 343.89 89.2493V89.2493Z" fill="#263238"/>
<path d="M348.012 86.7593C349.472 86.9393 350.192 88.7593 350.192 88.7593C351.957 89.4045 353.663 90.2008 355.292 91.1393C355.788 91.5443 356.162 92.0801 356.371 92.6861C356.579 93.2922 356.614 93.9444 356.472 94.5693C356.422 95.0493 355.242 95.4893 355.242 95.4893C355.242 95.4893 353.082 100.589 352.492 101.999L352.792 106.709C356.761 104.199 359.94 100.618 361.962 96.3793C365.372 89.2793 351.142 83.0293 351.142 83.0293L348.012 86.7593Z" fill="#263238"/>
<path d="M357.143 106.19C355.813 106.918 354.25 107.09 352.793 106.67C350.863 106.09 350.973 104.11 352.403 102.84C353.683 101.74 356.253 100.65 357.743 101.93C358.069 102.208 358.32 102.564 358.472 102.966C358.624 103.367 358.672 103.8 358.612 104.224C358.552 104.649 358.386 105.052 358.13 105.395C357.873 105.739 357.533 106.012 357.143 106.19V106.19Z" fill="#9F5B53"/>
<path d="M352.271 113.889L344.321 116.179L340.891 120.829L341.821 115.139C341.821 115.139 340.971 113.829 342.381 111.779L337.541 112.779L334.621 117.659L340.301 116.329L340.691 121.999L344.001 118.099L346.711 122.379L354.771 117.269L352.271 113.889Z" fill="#407BFF"/>
<path opacity="0.2" d="M352.271 113.889L344.321 116.179L340.891 120.829L341.821 115.139C341.821 115.139 340.971 113.829 342.381 111.779L337.541 112.779L334.621 117.659L340.301 116.329L340.691 121.999L344.001 118.099L346.711 122.379L354.771 117.269L352.271 113.889Z" fill="black"/>
<path d="M318.9 152.07L317.66 157.01L350.38 163.72L350.87 158.23L318.9 152.07Z" fill="black"/>
<path d="M333.513 154.659C333.253 154.289 325.973 152.719 325.283 153.239C325.283 153.239 323.873 158.109 324.113 158.619C324.353 159.129 331.433 160.119 332.113 160.259C332.793 160.399 333.773 155.069 333.513 154.659ZM331.513 159.659C330.973 159.549 325.153 158.739 324.953 158.319C324.753 157.899 325.953 153.899 325.953 153.899C326.523 153.469 332.503 154.759 332.713 155.059C332.923 155.359 332.053 159.719 331.513 159.609V159.659Z" fill="white"/>
<path d="M331.79 156.319L330.34 156.019C330.208 155.994 330.071 156.019 329.957 156.089C329.842 156.16 329.758 156.27 329.72 156.399V156.399C329.699 156.472 329.694 156.548 329.704 156.622C329.715 156.697 329.74 156.768 329.78 156.832C329.819 156.896 329.872 156.951 329.934 156.994C329.996 157.036 330.066 157.066 330.14 157.079L331.59 157.359C331.731 157.387 331.877 157.358 331.996 157.278C332.115 157.199 332.197 157.075 332.225 156.934C332.253 156.794 332.224 156.648 332.144 156.529C332.065 156.41 331.941 156.327 331.8 156.299L331.79 156.319Z" fill="white"/>
<path d="M350.383 163.719C350.383 163.719 351.013 200.719 349.973 211.519C348.933 222.319 375.893 281.429 375.893 281.429H367.163C367.163 281.429 340.713 238.149 334.653 224.829C328.593 211.509 324.113 179.729 324.113 179.729L350.383 163.719Z" fill="#263238"/>
<path d="M359.341 119.469C357.991 116.409 337.261 120.939 335.391 120.409C333.521 119.879 314.061 111.729 314.061 111.729L312.371 116.069C312.371 116.069 329.821 126.069 333.641 127.649C337.461 129.229 352.731 128.469 356.641 126.779C357.31 126.49 357.914 126.069 358.415 125.54C358.917 125.011 359.305 124.386 359.558 123.702C359.81 123.019 359.921 122.291 359.884 121.563C359.847 120.835 359.662 120.123 359.341 119.469V119.469Z" fill="#407BFF"/>
<path d="M355.67 40L349.39 0L316.31 23.39L327.31 28.05C316.69 52.39 282.24 123.7 222.96 176.28C147.27 243.43 41.3295 276.47 40.2695 276.79L46.1295 295.92C50.6295 294.54 157.21 261.34 236.27 191.21C299.27 135.33 334.69 61.63 345.81 35.83L355.67 40Z" fill="#407BFF"/>
<path opacity="0.4" d="M349.67 33L349.39 0L316.31 23.39L327.31 28.05C316.69 52.39 282.24 123.7 222.96 176.28C147.27 243.43 41.3295 276.47 40.2695 276.79L42.1295 288.92C46.6295 287.54 153.21 257.34 232.27 187.21C295.27 131.33 328.69 56.63 339.81 30.83L349.67 33Z" fill="white"/>
<path d="M343.888 41.6891C343.732 41.6904 343.576 41.6667 343.428 41.6191L324.218 35.4091C324.02 35.3579 323.834 35.2667 323.673 35.1412C323.512 35.0158 323.378 34.8587 323.279 34.6795C323.181 34.5004 323.12 34.303 323.101 34.0995C323.081 33.8961 323.104 33.6908 323.166 33.4962C323.229 33.3017 323.331 33.1221 323.466 32.9684C323.6 32.8146 323.765 32.6901 323.95 32.6023C324.134 32.5146 324.335 32.4654 324.539 32.458C324.744 32.4506 324.947 32.485 325.138 32.5591L344.348 38.7591C344.69 38.8674 344.982 39.0947 345.17 39.3997C345.359 39.7048 345.432 40.0674 345.377 40.4218C345.321 40.7762 345.14 41.0989 344.867 41.3314C344.594 41.5639 344.246 41.6908 343.888 41.6891V41.6891Z" fill="#263238"/>
<path opacity="0.4" d="M343.888 41.6891C343.732 41.6904 343.576 41.6667 343.428 41.6191L324.218 35.4091C324.02 35.3579 323.834 35.2667 323.673 35.1412C323.512 35.0158 323.378 34.8587 323.279 34.6795C323.181 34.5004 323.12 34.303 323.101 34.0995C323.081 33.8961 323.104 33.6908 323.166 33.4962C323.229 33.3017 323.331 33.1221 323.466 32.9684C323.6 32.8146 323.765 32.6901 323.95 32.6023C324.134 32.5146 324.335 32.4654 324.539 32.458C324.744 32.4506 324.947 32.485 325.138 32.5591L344.348 38.7591C344.69 38.8674 344.982 39.0947 345.17 39.3997C345.359 39.7048 345.432 40.0674 345.377 40.4218C345.321 40.7762 345.14 41.0989 344.867 41.3314C344.594 41.5639 344.246 41.6908 343.888 41.6891V41.6891Z" fill="white"/>
<path d="M113.82 228.889C113.422 228.889 113.041 228.731 112.76 228.45C112.478 228.169 112.32 227.787 112.32 227.389C112.32 179.649 126.19 173.389 128.79 172.619L172.89 141.77L172.99 141.71L342.41 41.2495C342.752 41.0547 343.157 41.002 343.537 41.1027C343.917 41.2033 344.243 41.4493 344.443 41.7876C344.644 42.1259 344.704 42.5295 344.609 42.9114C344.515 43.2933 344.275 43.623 343.94 43.8295L174.6 144.259L130.29 175.259C130.102 175.391 129.887 175.479 129.66 175.52C129.55 175.52 115.32 179.019 115.32 227.419C115.312 227.812 115.151 228.186 114.871 228.461C114.59 228.736 114.213 228.89 113.82 228.889V228.889Z" fill="#263238"/>
<path opacity="0.4" d="M113.82 228.889C113.422 228.889 113.041 228.731 112.76 228.45C112.478 228.169 112.32 227.787 112.32 227.389C112.32 179.649 126.19 173.389 128.79 172.619L172.89 141.77L172.99 141.71L342.41 41.2495C342.752 41.0547 343.157 41.002 343.537 41.1027C343.917 41.2033 344.243 41.4493 344.443 41.7876C344.644 42.1259 344.704 42.5295 344.609 42.9114C344.515 43.2933 344.275 43.623 343.94 43.8295L174.6 144.259L130.29 175.259C130.102 175.391 129.887 175.479 129.66 175.52C129.55 175.52 115.32 179.019 115.32 227.419C115.312 227.812 115.151 228.186 114.871 228.461C114.59 228.736 114.213 228.89 113.82 228.889V228.889Z" fill="white"/>
<path d="M125.339 179.35C125.339 179.35 117.629 184.35 111.769 185.86C110.323 186.349 108.771 186.436 107.279 186.11C102.919 184.73 105.509 176.29 108.109 170.96C108.529 170.09 108.949 169.31 109.339 168.65L116.959 173.36C116.959 173.36 112.339 179.95 112.869 180.36C113.399 180.77 120.519 176.8 120.869 176.67C121.219 176.54 125.339 179.35 125.339 179.35Z" fill="#407BFF"/>
<path opacity="0.2" d="M125.339 179.35C125.339 179.35 117.629 184.35 111.769 185.86C110.143 181.003 108.918 176.019 108.109 170.96C108.529 170.09 108.949 169.31 109.339 168.65L116.959 173.36C116.959 173.36 112.339 179.95 112.869 180.36C113.399 180.77 120.519 176.8 120.869 176.67C121.219 176.54 125.339 179.35 125.339 179.35Z" fill="black"/>
<path d="M162.891 150.33L167.411 146.33C167.772 145.188 168.269 144.093 168.891 143.07C169.381 142.66 177.611 142.02 177.611 142.02C177.611 142.02 177.771 146.37 177.121 147.5C176.471 148.63 169.751 149.12 169.751 149.12L166.151 152.59L162.891 150.33Z" fill="#EEC1BB"/>
<path d="M186.969 245.119C185.679 263.679 182.229 290.019 182.229 290.019L177.789 291.019C177.789 291.019 173.689 268.969 174.339 248.509C174.455 244.048 174.876 239.601 175.599 235.199C175.599 235.199 160.219 229.289 149.539 223.999C144.439 221.479 140.409 219.089 139.639 217.549C137.259 212.799 148.079 201.639 148.079 201.639C148.419 201.909 154.949 206.069 162.549 210.999C172.639 217.539 184.609 225.439 186.549 227.409C187.709 228.539 187.609 235.859 186.969 245.119Z" fill="#EEC1BB"/>
<path opacity="0.2" d="M186.969 245.12C182.865 246.609 178.639 247.736 174.339 248.49C174.455 244.03 174.876 239.583 175.599 235.18C175.599 235.18 160.219 229.27 149.539 223.98L162.539 210.98C172.629 217.52 184.599 225.42 186.539 227.39C187.709 228.54 187.609 235.86 186.969 245.12Z" fill="black"/>
<path d="M152.352 198.539C152.352 198.539 195.022 223.069 200.822 228.609C206.622 234.149 240.102 285.919 240.102 285.919L237.282 288.609C237.282 288.609 209.482 264.749 198.392 242.069L152.392 219.839L152.352 198.539Z" fill="#EEC1BB"/>
<path d="M119.889 153.249C119.958 153.296 120.032 153.336 120.109 153.369C121.157 153.962 122.313 154.34 123.509 154.479C126.989 154.789 129.229 154.009 130.509 152.269C132.289 149.689 132.249 145.569 131.269 140.719C130.945 138.778 130.313 136.901 129.399 135.159C129.399 135.159 129.399 135.089 129.399 135.079L129.279 134.879C128.722 133.903 127.93 133.082 126.975 132.492C126.019 131.901 124.931 131.56 123.809 131.499C122.832 131.418 121.85 131.445 120.879 131.579C111.379 132.809 111.889 148.829 119.889 153.249Z" fill="#EEC1BB"/>
<path opacity="0.2" d="M120.152 153.369C121.202 153.93 122.356 154.27 123.542 154.369C127.012 154.679 129.242 153.779 130.542 152.029C128.597 152.804 126.453 152.927 124.432 152.379C123.691 152.208 122.92 152.208 122.178 152.379C121.436 152.551 120.743 152.889 120.152 153.369V153.369Z" fill="black"/>
<path d="M119.509 161.19C118.679 163.87 122.109 165.29 122.109 165.29C128.109 163.29 129.459 160.36 129.459 160.36C124.859 157.36 126.879 150.42 126.879 150.42L125.879 150.82L118.879 151.56C118.879 151.56 120.469 155.39 120.649 156.25C121.529 160.76 119.509 161.19 119.509 161.19Z" fill="#EBB376"/>
<path d="M129.459 135.07C129.459 135.07 130.919 141.68 124.989 145.43C124.989 145.43 123.239 152.76 119.249 153.43C113.809 154.33 107.919 147.24 108.699 139.06C109.719 128.48 125.139 125.47 129.459 135.07Z" fill="#263238"/>
<path d="M127.89 143.069C127.74 142.069 126.66 140.389 125.07 140.859C123.48 141.329 123.07 145.599 127.33 145.949C127.98 146.069 128.24 145.269 127.89 143.069Z" fill="#EBB376"/>
<path d="M238.243 282.739L233.643 286.279C233.548 286.355 233.482 286.46 233.455 286.578C233.428 286.696 233.441 286.819 233.493 286.929L235.833 291.929C235.883 292.035 235.954 292.13 236.041 292.208C236.128 292.287 236.23 292.347 236.34 292.386C236.451 292.425 236.568 292.442 236.685 292.436C236.802 292.429 236.917 292.4 237.023 292.349C237.082 292.321 237.139 292.288 237.193 292.249C239.053 290.759 239.113 290.529 241.483 288.709C242.933 287.589 247.483 284.349 249.483 282.799C251.483 281.249 250.223 279.059 249.263 279.509C244.943 281.509 241.263 282.579 239.263 282.429C238.896 282.401 238.532 282.512 238.243 282.739V282.739Z" fill="#263238"/>
<path d="M239.24 282.649C239.214 282.661 239.186 282.666 239.157 282.661C239.129 282.657 239.103 282.644 239.083 282.625C239.062 282.605 239.048 282.58 239.042 282.552C239.036 282.524 239.039 282.495 239.05 282.469C239.14 282.229 239.96 280.079 240.7 279.949C240.782 279.931 240.867 279.938 240.945 279.968C241.023 279.999 241.091 280.051 241.14 280.119C241.242 280.22 241.317 280.346 241.357 280.484C241.397 280.623 241.402 280.769 241.37 280.909C241.251 281.317 240.993 281.671 240.64 281.909C240.203 282.209 239.733 282.457 239.24 282.649V282.649ZM239.45 282.239C240.156 282 240.743 281.499 241.09 280.839C241.109 280.744 241.105 280.646 241.077 280.554C241.049 280.461 240.999 280.377 240.93 280.309C240.85 280.229 240.78 280.209 240.75 280.239C240.687 280.251 240.629 280.279 240.58 280.319C240.085 280.881 239.701 281.533 239.45 282.239V282.239Z" fill="#407BFF"/>
<path d="M239.23 282.699C239.205 282.7 239.181 282.695 239.158 282.684C239.136 282.674 239.116 282.658 239.1 282.639C239.1 282.569 238.1 281.099 238.31 280.219C238.334 280.112 238.379 280.011 238.443 279.922C238.506 279.832 238.587 279.757 238.68 279.699C238.765 279.631 238.871 279.594 238.98 279.594C239.089 279.594 239.195 279.631 239.28 279.699C239.77 280.129 239.62 281.919 239.33 282.569L239.28 282.619L239.23 282.699ZM238.56 280.239C238.558 280.93 238.763 281.606 239.15 282.179C239.389 281.431 239.354 280.623 239.05 279.899C239.05 279.899 238.94 279.789 238.8 279.899H238.74C238.641 279.987 238.577 280.108 238.56 280.239Z" fill="#407BFF"/>
<path d="M183.011 287.069L177.201 287.179C177.081 287.185 176.968 287.231 176.877 287.309C176.787 287.387 176.725 287.492 176.701 287.609L175.611 293.019C175.578 293.245 175.634 293.475 175.766 293.661C175.898 293.847 176.097 293.975 176.321 294.019C176.387 294.029 176.454 294.029 176.521 294.019C178.891 293.929 179.081 293.779 182.071 293.719C183.911 293.719 189.461 293.769 192.001 293.719C194.541 293.669 194.821 291.149 193.781 290.939C189.091 290.019 185.561 288.679 184.041 287.369C183.748 287.141 183.38 287.034 183.011 287.069V287.069Z" fill="#263238"/>
<path d="M183.529 287.709C183.5 287.705 183.473 287.691 183.453 287.669C183.433 287.647 183.421 287.619 183.419 287.589C183.411 287.563 183.413 287.534 183.424 287.509C183.435 287.483 183.454 287.462 183.479 287.449C183.689 287.309 185.619 286.069 186.299 286.399C186.376 286.434 186.442 286.49 186.488 286.561C186.534 286.632 186.559 286.715 186.559 286.799C186.579 286.942 186.563 287.087 186.512 287.221C186.461 287.356 186.378 287.476 186.269 287.569C185.933 287.812 185.522 287.929 185.109 287.899C184.577 287.896 184.047 287.833 183.529 287.709V287.709ZM183.939 287.499C184.648 287.726 185.418 287.673 186.089 287.349C186.16 287.284 186.213 287.203 186.244 287.112C186.276 287.021 186.284 286.924 186.269 286.829C186.269 286.719 186.209 286.669 186.179 286.669C186.116 286.655 186.051 286.655 185.989 286.669C185.259 286.815 184.564 287.096 183.939 287.499V287.499Z" fill="#407BFF"/>
<path d="M183.493 287.739C183.469 287.727 183.45 287.708 183.437 287.684C183.425 287.661 183.42 287.635 183.423 287.609C183.423 287.529 183.533 285.789 184.223 285.199C184.304 285.125 184.401 285.069 184.507 285.036C184.612 285.004 184.723 284.994 184.833 285.009C184.942 285.006 185.048 285.042 185.134 285.109C185.22 285.177 185.279 285.272 185.303 285.379C185.433 286.009 184.303 287.379 183.633 287.719H183.563C183.543 287.734 183.518 287.741 183.493 287.739V287.739ZM184.413 285.369C184 285.923 183.764 286.588 183.733 287.279C184.353 286.799 185.103 285.769 185.013 285.379C185.013 285.379 185.013 285.239 184.803 285.239H184.733C184.614 285.241 184.5 285.287 184.413 285.369V285.369Z" fill="#407BFF"/>
<path d="M151.16 191.969L129.99 200.859C121.24 179.109 109.34 168.649 109.34 168.649C117.82 158.479 133.48 153.799 133.48 153.799C135.793 155.681 137.788 157.923 139.39 160.439C141.155 163.172 142.694 166.045 143.99 169.029C147.135 176.419 149.537 184.103 151.16 191.969V191.969Z" fill="#407BFF"/>
<path d="M129.261 139.489C129.261 139.489 135.911 132.709 129.541 128.239C123.171 123.769 116.851 129.739 116.851 129.739C116.851 129.739 101.721 133.549 105.041 143.599C108.361 153.649 110.481 154.479 105.731 159.699C100.981 164.919 96.1408 172.619 101.101 177.469C106.061 182.319 123.161 177.119 128.291 169.679C133.421 162.239 124.081 146.469 129.261 139.489Z" fill="#263238"/>
<path d="M149.621 185.449L126.621 193.339C126.621 193.339 131.711 218.389 135.401 222.579C139.091 226.769 163.761 246.169 167.251 244.639C170.741 243.109 193.891 222.579 193.891 222.579L154.721 195.719L149.621 185.449Z" fill="#263238"/>
<path d="M146.27 190.159L151.16 188.539L149.95 186.119L145.32 187.749L146.27 190.159Z" fill="black"/>
<path d="M131.651 192.559L126.641 194.319L127.311 196.459L132.211 194.829L131.651 192.559Z" fill="black"/>
<path d="M133.262 194.48L145.292 190.49L144.392 188.07L132.602 192.22L133.262 194.48Z" fill="black"/>
<path opacity="0.2" d="M143.992 169.07C138.932 168.48 136.082 160.87 136.082 160.87C137.177 160.674 138.282 160.544 139.392 160.48C141.158 163.213 142.696 166.086 143.992 169.07V169.07Z" fill="black"/>
<path d="M133.482 153.799C138.982 152.979 151.282 157.439 152.352 157.389C153.422 157.339 165.352 147.959 165.352 147.959L168.452 150.689C168.452 150.689 155.952 163.579 153.382 163.689C150.812 163.799 137.382 162.829 137.382 162.829C137.382 162.829 134.092 161.659 133.462 158.689C133.079 157.081 133.086 155.404 133.482 153.799V153.799Z" fill="#407BFF"/>
</svg>
