<svg xmlns="http://www.w3.org/2000/svg" xmlns:xlink="http://www.w3.org/1999/xlink" width="500" zoomAndPan="magnify" viewBox="0 0 375 374.999991" height="500" preserveAspectRatio="xMidYMid meet" version="1.0"><defs><g/></defs><g fill="#2e2e2e" fill-opacity="1"><g transform="translate(33.305602, 225.087789)"><g><path d="M 1.34375 0 L 21.28125 -36.625 L 2.59375 -71.03125 L 18.3125 -71.03125 L 25.40625 -56.359375 C 26.300781 -54.703125 27.144531 -52.976562 27.9375 -51.1875 C 28.738281 -49.394531 29.648438 -47.382812 30.671875 -45.15625 L 31.15625 -45.15625 C 32.050781 -47.382812 32.863281 -49.394531 33.59375 -51.1875 C 34.332031 -52.976562 35.082031 -54.703125 35.84375 -56.359375 L 42.5625 -71.03125 L 57.515625 -71.03125 L 38.828125 -35.953125 L 58.765625 0 L 43.046875 0 L 35.078125 -15.71875 C 34.191406 -17.570312 33.316406 -19.441406 32.453125 -21.328125 C 31.585938 -23.210938 30.613281 -25.242188 29.53125 -27.421875 L 29.140625 -27.421875 C 28.304688 -25.242188 27.457031 -23.210938 26.59375 -21.328125 C 25.738281 -19.441406 24.863281 -17.570312 23.96875 -15.71875 L 16.390625 0 Z M 1.34375 0 "/></g></g></g><g fill="#2e2e2e" fill-opacity="1"><g transform="translate(93.409214, 225.087789)"><g><path d="M 8.71875 0 L 8.71875 -71.03125 L 32.015625 -71.03125 C 37.253906 -71.03125 41.96875 -70.328125 46.15625 -68.921875 C 50.34375 -67.515625 53.664062 -65.195312 56.125 -61.96875 C 58.582031 -58.738281 59.8125 -54.316406 59.8125 -48.703125 C 59.8125 -43.328125 58.582031 -38.898438 56.125 -35.421875 C 53.664062 -31.941406 50.375 -29.367188 46.25 -27.703125 C 42.125 -26.046875 37.507812 -25.21875 32.40625 -25.21875 L 22.90625 -25.21875 L 22.90625 0 Z M 22.90625 -36.421875 L 31.4375 -36.421875 C 41.09375 -36.421875 45.921875 -40.515625 45.921875 -48.703125 C 45.921875 -52.847656 44.65625 -55.71875 42.125 -57.3125 C 39.601562 -58.914062 35.882812 -59.71875 30.96875 -59.71875 L 22.90625 -59.71875 Z M 22.90625 -36.421875 "/></g></g></g><g fill="#2e2e2e" fill-opacity="1"><g transform="translate(157.347194, 225.087789)"><g><path d="M 8.71875 0 L 8.71875 -71.03125 L 52.25 -71.03125 L 52.25 -59.140625 L 22.90625 -59.140625 L 22.90625 -42.75 L 47.828125 -42.75 L 47.828125 -30.859375 L 22.90625 -30.859375 L 22.90625 -11.890625 L 53.296875 -11.890625 L 53.296875 0 Z M 8.71875 0 "/></g></g></g><g fill="#2e2e2e" fill-opacity="1"><g transform="translate(216.300524, 225.087789)"><g><path d="M 8.71875 0 L 8.71875 -71.03125 L 33.453125 -71.03125 C 38.441406 -71.03125 42.945312 -70.359375 46.96875 -69.015625 C 51 -67.671875 54.195312 -65.429688 56.5625 -62.296875 C 58.925781 -59.171875 60.109375 -54.894531 60.109375 -49.46875 C 60.109375 -44.15625 58.875 -39.820312 56.40625 -36.46875 C 53.945312 -33.113281 50.675781 -30.640625 46.59375 -29.046875 L 63.171875 0 L 47.359375 0 L 32.78125 -26.84375 L 22.90625 -26.84375 L 22.90625 0 Z M 22.90625 -38.0625 L 32.109375 -38.0625 C 36.648438 -38.0625 40.148438 -39.019531 42.609375 -40.9375 C 45.066406 -42.851562 46.296875 -45.695312 46.296875 -49.46875 C 46.296875 -53.300781 45.066406 -55.96875 42.609375 -57.46875 C 40.148438 -58.96875 36.648438 -59.71875 32.109375 -59.71875 L 22.90625 -59.71875 Z M 22.90625 -38.0625 "/></g></g></g><g fill="#2e2e2e" fill-opacity="1"><g transform="translate(281.676404, 225.087789)"><g><path d="M 22.8125 0 L 22.8125 -59.140625 L 2.875 -59.140625 L 2.875 -71.03125 L 57.125 -71.03125 L 57.125 -59.140625 L 37 -59.140625 L 37 0 Z M 22.8125 0 "/></g></g></g></svg>